# xmcd
#
# Track frame offsets:
#	150
#	13122
#	26899
#	41613
#	50333
#	59515
#	65814
#	79901
#	90901
#	103393
#	114805
#	126209
#	137954
#	144776
#
# Disc length: 2107 seconds
#
# Revision: 1
# Processed by: cddbd v1.5.1PL2 Copyright (c) Steve Scherf et al.
# Submitted via: audiograbber 1.83.01
#
DISCID=c408390e
DTITLE=Zvjezdice - Svim na zemlji mir veselje
DYEAR=1900
DGENRE=
TTITLE0=Kyrie eleison
TTITLE1=Veselje ti navjescujem
TTITLE2=U to vrijeme godista
TTITLE3=Rodio se Bog i covjek
TTITLE4=O, pastiri, cudo novo
TTITLE5=Zdravo budi, mladi kralju 
TTITLE6=Tiha noc
TTITLE7=Radujte se narodi
TTITLE8=Svim na zemlji mir veselje
TTITLE9=O, Betleme
TTITLE10=Tri kralja jahahu
TTITLE11=Djetesce nam se rodilo
TTITLE12=Oj, pastiri, cujte novi glas
TTITLE13=Narodi nam se 
EXTD=
EXTT0=
EXTT1=
EXTT2=
EXTT3=
EXTT4=
EXTT5=
EXTT6=
EXTT7=
EXTT8=
EXTT9=
EXTT10=
EXTT11=
EXTT12=
EXTT13=
PLAYORDER=
